Normalized EMG Linear Envelopes
nRows=43
nColumns=17

endheader
time	        VM	        VL	        RF	       GRA	        TA	   ADDLONG	   SEMIMEM	      BFLH	        GM	        GL	       TFL	   GLUTMAX	   GLUTMED	      PIRI	    OBTINT	        QF	
1.821	  0.205420	  0.106312	  0.055133	  0.507263	  0.298460	  0.100976	  0.558586	  0.656801	  0.336891	  0.123108	  0.045502	  0.388372	  0.483211	  0.611545	  0.930419	  0.658277	
1.8215	  0.204258	  0.105250	  0.053582	  0.512050	  0.298523	  0.101377	  0.563300	  0.661235	  0.338874	  0.124468	  0.045307	  0.390737	  0.483818	  0.616139	  0.937578	  0.664392	
1.822	  0.203092	  0.104179	  0.052059	  0.516795	  0.298644	  0.101776	  0.567966	  0.665643	  0.340870	  0.125822	  0.045120	  0.393064	  0.484331	  0.620644	  0.944598	  0.670490	
1.8225	  0.201925	  0.103099	  0.050565	  0.521498	  0.298822	  0.102174	  0.572585	  0.670024	  0.342880	  0.127169	  0.044941	  0.395354	  0.484748	  0.625056	  0.951471	  0.676569	
1.823	  0.200757	  0.102011	  0.049099	  0.526156	  0.299058	  0.102571	  0.577158	  0.674380	  0.344904	  0.128509	  0.044771	  0.397606	  0.485070	  0.629368	  0.958193	  0.682626	
1.8235	  0.199588	  0.100916	  0.047661	  0.530767	  0.299351	  0.102968	  0.581686	  0.678710	  0.346943	  0.129843	  0.044608	  0.399821	  0.485295	  0.633577	  0.964757	  0.688659	
1.824	  0.198420	  0.099814	  0.046251	  0.535332	  0.299702	  0.103363	  0.586172	  0.683015	  0.348996	  0.131170	  0.044453	  0.401998	  0.485423	  0.637677	  0.971157	  0.694666	
1.8245	  0.197253	  0.098707	  0.044870	  0.539847	  0.300109	  0.103758	  0.590618	  0.687293	  0.351063	  0.132490	  0.044306	  0.404138	  0.485454	  0.641665	  0.977389	  0.700645	
1.825	  0.196089	  0.097595	  0.043516	  0.544313	  0.300573	  0.104152	  0.595025	  0.691546	  0.353145	  0.133802	  0.044166	  0.406241	  0.485388	  0.645535	  0.983447	  0.706593	
1.8255	  0.194928	  0.096478	  0.042191	  0.548728	  0.301094	  0.104546	  0.599398	  0.695773	  0.355241	  0.135108	  0.044032	  0.408306	  0.485224	  0.649282	  0.989324	  0.712508	
1.826	  0.193772	  0.095358	  0.040892	  0.553091	  0.301671	  0.104940	  0.603737	  0.699974	  0.357351	  0.136407	  0.043905	  0.410334	  0.484962	  0.652904	  0.995017	  0.718387	
1.8265	  0.192621	  0.094235	  0.039622	  0.557402	  0.302303	  0.105335	  0.608046	  0.704150	  0.359475	  0.137700	  0.043785	  0.412325	  0.484603	  0.656396	  1.000520	  0.724230	
1.827	  0.191477	  0.093111	  0.038378	  0.561661	  0.302991	  0.105730	  0.612325	  0.708301	  0.361612	  0.138986	  0.043670	  0.414280	  0.484146	  0.659754	  1.005829	  0.730032	
1.8275	  0.190340	  0.091986	  0.037161	  0.565866	  0.303732	  0.106125	  0.616578	  0.712427	  0.363763	  0.140265	  0.043562	  0.416197	  0.483593	  0.662976	  1.010940	  0.735794	
1.828	  0.189212	  0.090860	  0.035972	  0.570019	  0.304528	  0.106522	  0.620806	  0.716529	  0.365926	  0.141539	  0.043459	  0.418078	  0.482942	  0.666058	  1.015849	  0.741513	
1.8285	  0.188094	  0.089736	  0.034808	  0.574117	  0.305376	  0.106920	  0.625012	  0.720606	  0.368103	  0.142806	  0.043361	  0.419923	  0.482194	  0.668996	  1.020552	  0.747188	
1.829	  0.186986	  0.088612	  0.033672	  0.578162	  0.306276	  0.107320	  0.629196	  0.724660	  0.370292	  0.144068	  0.043269	  0.421731	  0.481349	  0.671789	  1.025048	  0.752816	
1.8295	  0.185889	  0.087492	  0.032561	  0.582152	  0.307228	  0.107723	  0.633361	  0.728689	  0.372494	  0.145325	  0.043181	  0.423504	  0.480406	  0.674431	  1.029331	  0.758396	
1.83	  0.184805	  0.086374	  0.031477	  0.586088	  0.308230	  0.108128	  0.637508	  0.732693	  0.374707	  0.146576	  0.043098	  0.425241	  0.479366	  0.676920	  1.033399	  0.763925	
1.8305	  0.183734	  0.085260	  0.030418	  0.589970	  0.309281	  0.108536	  0.641638	  0.736672	  0.376932	  0.147823	  0.043019	  0.426942	  0.478228	  0.679252	  1.037248	  0.769402	
1.831	  0.182676	  0.084151	  0.029385	  0.593799	  0.310380	  0.108947	  0.645752	  0.740626	  0.379167	  0.149064	  0.042944	  0.428607	  0.476993	  0.681426	  1.040873	  0.774823	
1.8315	  0.181634	  0.083048	  0.028378	  0.597576	  0.311527	  0.109363	  0.649853	  0.744553	  0.381413	  0.150301	  0.042874	  0.430236	  0.475662	  0.683438	  1.044271	  0.780187	
1.832	  0.180607	  0.081950	  0.027396	  0.601302	  0.312720	  0.109783	  0.653941	  0.748455	  0.383668	  0.151532	  0.042806	  0.431830	  0.474236	  0.685288	  1.047437	  0.785491	
1.8325	  0.179597	  0.080860	  0.026438	  0.604978	  0.313958	  0.110208	  0.658017	  0.752329	  0.385931	  0.152759	  0.042742	  0.433389	  0.472717	  0.686974	  1.050367	  0.790734	
1.833	  0.178603	  0.079778	  0.025506	  0.608607	  0.315240	  0.110638	  0.662084	  0.756175	  0.388201	  0.153982	  0.042682	  0.434911	  0.471107	  0.688496	  1.053057	  0.795914	
1.8335	  0.177628	  0.078704	  0.024598	  0.612190	  0.316565	  0.111074	  0.666140	  0.759993	  0.390478	  0.155199	  0.042623	  0.436398	  0.469407	  0.689855	  1.055503	  0.801030	
1.834	  0.176671	  0.077640	  0.023715	  0.615730	  0.317931	  0.111515	  0.670189	  0.763782	  0.392761	  0.156412	  0.042568	  0.437848	  0.467621	  0.691050	  1.057702	  0.806080	
1.8345	  0.175734	  0.076587	  0.022856	  0.619228	  0.319338	  0.111963	  0.674231	  0.767542	  0.395048	  0.157619	  0.042514	  0.439261	  0.465752	  0.692084	  1.059651	  0.811063	
1.835	  0.174816	  0.075545	  0.022021	  0.622685	  0.320784	  0.112417	  0.678268	  0.771274	  0.397339	  0.158822	  0.042462	  0.440636	  0.463801	  0.692958	  1.061347	  0.815978	
1.8355	  0.173919	  0.074515	  0.021210	  0.626104	  0.322269	  0.112879	  0.682299	  0.774978	  0.399632	  0.160019	  0.042412	  0.441973	  0.461771	  0.693672	  1.062791	  0.820825	
1.836	  0.173042	  0.073498	  0.020423	  0.629486	  0.323790	  0.113347	  0.686327	  0.778654	  0.401926	  0.161211	  0.042363	  0.443271	  0.459666	  0.694229	  1.063980	  0.825601	
1.8365	  0.172188	  0.072495	  0.019659	  0.632831	  0.325348	  0.113822	  0.690351	  0.782302	  0.404220	  0.162397	  0.042315	  0.444529	  0.457487	  0.694629	  1.064916	  0.830305	
1.837	  0.171355	  0.071507	  0.018918	  0.636143	  0.326940	  0.114305	  0.694374	  0.785924	  0.406513	  0.163577	  0.042267	  0.445746	  0.455237	  0.694875	  1.065600	  0.834936	
1.8375	  0.170545	  0.070534	  0.018201	  0.639421	  0.328567	  0.114795	  0.698394	  0.789520	  0.408804	  0.164752	  0.042220	  0.446921	  0.452919	  0.694966	  1.066035	  0.839493	
1.838	  0.169758	  0.069578	  0.017506	  0.642668	  0.330227	  0.115294	  0.702412	  0.793091	  0.411091	  0.165921	  0.042174	  0.448053	  0.450534	  0.694904	  1.066222	  0.843974	
1.8385	  0.168993	  0.068639	  0.016834	  0.645883	  0.331918	  0.115801	  0.706429	  0.796636	  0.413373	  0.167084	  0.042127	  0.449142	  0.448086	  0.694691	  1.066165	  0.848377	
1.839	  0.168253	  0.067718	  0.016185	  0.649069	  0.333639	  0.116316	  0.710445	  0.800156	  0.415648	  0.168242	  0.042081	  0.450186	  0.445576	  0.694328	  1.065870	  0.852701	
1.8395	  0.167536	  0.066815	  0.015557	  0.652226	  0.335390	  0.116840	  0.714459	  0.803652	  0.417917	  0.169395	  0.042034	  0.451187	  0.443007	  0.693818	  1.065338	  0.856944	
1.84	  0.166843	  0.065932	  0.014952	  0.655355	  0.337169	  0.117374	  0.718471	  0.807124	  0.420177	  0.170542	  0.041987	  0.452143	  0.440381	  0.693163	  1.064575	  0.861105	
1.8405	  0.166174	  0.065068	  0.014369	  0.658455	  0.338974	  0.117917	  0.722482	  0.810573	  0.422427	  0.171684	  0.041940	  0.453055	  0.437699	  0.692367	  1.063584	  0.865181	
1.841	  0.165530	  0.064226	  0.013807	  0.661529	  0.340805	  0.118470	  0.726491	  0.813998	  0.424666	  0.172822	  0.041893	  0.453923	  0.434965	  0.691432	  1.062368	  0.869172	
1.8415	  0.164910	  0.063404	  0.013266	  0.664575	  0.342660	  0.119034	  0.730498	  0.817400	  0.426893	  0.173955	  0.041845	  0.454749	  0.432182	  0.690363	  1.060929	  0.873075	
1.842	  0.164314	  0.062605	  0.012747	  0.667594	  0.344540	  0.119608	  0.734502	  0.820779	  0.429105	  0.175084	  0.041796	  0.455533	  0.429350	  0.689162	  1.059273	  0.876891	
